<?xml version="1.0" encoding="UTF-8"?>
<svg width="307px" height="37px" viewBox="0 0 307 37" version="1.1" xmlns="http://www.w3.org/2000/svg" xmlns:xlink="http://www.w3.org/1999/xlink">
    <title>845F2698-54C2-456E-B42C-A947B6AD49A0</title>
    <g id="Anasayfa" stroke="none" stroke-width="1" fill="none" fill-rule="evenodd">
        <g id="Anasayfa---1200px-penelope" transform="translate(-370.000000, -100.000000)" fill="#2A353B">
            <g id="Group" transform="translate(370.000000, 100.000000)">
                <path d="M41.8062846,20.729779 L38.2299,20.729779 L38.2299,12.8360098 L41.6659769,12.8360098 C42.8439769,12.8360098 43.7764385,13.0303944 44.4516692,13.4293944 C45.6515923,14.0973175 46.2537462,15.2153944 46.2537462,16.7617021 C46.2537462,19.399779 44.7746692,20.729779 41.8062846,20.729779 M47.6816692,11.1654713 C46.1046692,9.75362516 44.1111308,9.0520867 41.7054385,9.0520867 L36.5959,9.0520867 C35.1650538,9.0520867 34.4357462,9.77116362 34.4357462,11.2034713 L34.4357462,31.6430867 C34.4357462,32.1970098 34.6169769,32.6588559 34.9604385,33.0300867 C35.3009769,33.4188559 35.7540538,33.6190867 36.3182077,33.6190867 C37.5897462,33.6190867 38.2299,32.9643175 38.2299,31.6430867 L38.2299,24.5180867 L42.1541308,24.5180867 C44.4516692,24.5180867 46.3326692,23.8136252 47.8161308,22.4310098 C49.3010538,21.0381636 50.0405923,19.1995482 50.0405923,16.9034713 C50.0405923,14.4948559 49.2513615,12.5846252 47.6816692,11.1654713" id="Fill-41"></path>
                <path d="M64.0852462,33.6190867 L55.2575538,33.6190867 C53.8194,33.6190867 53.1076308,32.9014713 53.1076308,31.4662405 L53.1076308,11.2034713 C53.1076308,9.77116362 53.8194,9.0520867 55.2575538,9.0520867 L64.0852462,9.0520867 C64.6377077,9.0520867 65.1010154,9.22893285 65.4751692,9.60600978 C65.8624769,9.95385593 66.0685538,10.4025482 66.0685538,10.9623175 C66.0685538,11.5206252 65.8624769,11.9737021 65.4751692,12.3157021 C65.1010154,12.6620867 64.6377077,12.8360098 64.0852462,12.8360098 L56.8857077,12.8360098 L56.8857077,18.3957021 L61.7467846,18.3957021 C62.3050923,18.3957021 62.7727846,18.5813175 63.1381692,18.9583944 C63.5371692,19.3003944 63.7374,19.7549329 63.7374,20.3147021 C63.7374,20.8657021 63.5371692,21.3173175 63.1381692,21.6622405 C62.7727846,22.0130098 62.3050923,22.1898559 61.7467846,22.1898559 L56.8857077,22.1898559 L56.8857077,29.8351636 L64.0852462,29.8351636 C64.6377077,29.8351636 65.1010154,30.0149329 65.4751692,30.3890867 C65.8624769,30.7369329 66.0685538,31.1856252 66.0685538,31.7439329 C66.0685538,32.2978559 65.8624769,32.7509329 65.4751692,33.1002405 C65.1010154,33.4437021 64.6377077,33.6190867 64.0852462,33.6190867" id="Fill-43"></path>
                <path d="M82.2238154,33.6190867 C81.4828154,33.6190867 80.7900462,33.0534713 80.1396615,31.920779 L72.4256615,18.0186252 L72.4256615,31.6430867 C72.4256615,32.9643175 71.7884308,33.6190867 70.5081231,33.6190867 C69.9542,33.6190867 69.5084308,33.4188559 69.1620462,33.0300867 C68.8127385,32.6588559 68.6329692,32.1970098 68.6329692,31.6430867 L68.6329692,11.9342405 C68.6329692,10.0123175 69.2468154,9.0520867 70.4759692,9.0520867 C71.2652,9.0520867 71.9009692,9.47154824 72.3876615,10.298779 L80.3150462,24.3763175 L80.3150462,11.0310098 C80.3150462,10.4741636 80.4889692,10.0123175 80.8265846,9.6410867 C81.1773538,9.24354824 81.6289692,9.0520867 82.1843538,9.0520867 C83.4646615,9.0520867 84.1033538,9.70539439 84.1033538,11.0310098 L84.1033538,30.7018559 C84.1033538,32.6500867 83.4690462,33.6190867 82.2238154,33.6190867" id="Fill-45"></path>
                <path d="M100.047862,33.6190867 L91.2274769,33.6190867 C89.7878615,33.6190867 89.0731692,32.9014713 89.0731692,31.4662405 L89.0731692,11.2034713 C89.0731692,9.77116362 89.7878615,9.0520867 91.2274769,9.0520867 L100.047862,9.0520867 C100.609092,9.0520867 101.066554,9.22893285 101.445092,9.60600978 C101.838246,9.95385593 102.031169,10.4025482 102.031169,10.9623175 C102.031169,11.5206252 101.838246,11.9737021 101.445092,12.3157021 C101.066554,12.6620867 100.609092,12.8360098 100.047862,12.8360098 L92.8570923,12.8360098 L92.8570923,18.3957021 L97.7240154,18.3957021 C98.2779385,18.3957021 98.7441692,18.5813175 99.1124769,18.9583944 C99.5041692,19.3003944 99.7058615,19.7549329 99.7058615,20.3147021 C99.7058615,20.8657021 99.5041692,21.3173175 99.1124769,21.6622405 C98.7441692,22.0130098 98.2779385,22.1898559 97.7240154,22.1898559 L92.8570923,22.1898559 L92.8570923,29.8351636 L100.047862,29.8351636 C100.609092,29.8351636 101.066554,30.0149329 101.445092,30.3890867 C101.838246,30.7369329 102.031169,31.1856252 102.031169,31.7439329 C102.031169,32.2978559 101.838246,32.7509329 101.445092,33.1002405 C101.066554,33.4437021 100.609092,33.6190867 100.047862,33.6190867" id="Fill-47"></path>
                <path d="M115.587962,33.6190867 L106.764654,33.6190867 C105.319192,33.6190867 104.601577,32.9014713 104.601577,31.4662405 L104.601577,11.0310098 C104.601577,10.4741636 104.776962,10.0123175 105.123346,9.6410867 C105.469731,9.24354824 105.924269,9.0520867 106.476731,9.0520867 C107.757038,9.0520867 108.394269,9.70539439 108.394269,11.0310098 L108.394269,29.8351636 L115.587962,29.8351636 C116.141885,29.8351636 116.600808,30.0149329 116.970577,30.3890867 C117.363731,30.7369329 117.568346,31.1856252 117.568346,31.7439329 C117.568346,32.2978559 117.363731,32.7509329 116.970577,33.1002405 C116.600808,33.4437021 116.141885,33.6190867 115.587962,33.6190867" id="Fill-49"></path>
                <path d="M130.145908,25.3837559 C130.145908,26.7064482 129.818523,27.7733713 129.175446,28.578679 C128.526523,29.3912944 127.541446,29.8005252 126.223138,29.8005252 C125.064138,29.8005252 124.112677,29.4424482 123.367292,28.7175252 C122.629215,27.9999098 122.257985,26.8189867 122.257985,25.1732944 L122.257985,17.4242175 C122.257985,14.3900636 123.574831,12.8729867 126.1866,12.8729867 C127.437677,12.8729867 128.438831,13.3129098 129.209062,14.1971405 C129.828754,14.8840636 130.145908,15.9202944 130.145908,17.2868329 L130.145908,25.3837559 Z M131.743369,11.3412944 C130.313985,9.81983285 128.478292,9.05252516 126.253831,9.05252516 C123.870062,9.05252516 121.955446,9.85637132 120.518754,11.4859867 C119.150754,13.0147559 118.468215,14.9776021 118.468215,17.3920636 L118.468215,25.1732944 C118.468215,27.5599867 119.150754,29.5432944 120.518754,31.1144482 C121.955446,32.7864482 123.858369,33.6195252 126.223138,33.6195252 C128.427138,33.6195252 130.249677,32.8668329 131.712677,31.3599867 C133.190292,29.8356021 133.9386,27.9575252 133.9386,25.7272175 L133.9386,16.9433713 C133.9386,14.7130636 133.201985,12.846679 131.743369,11.3412944 L131.743369,11.3412944 Z" id="Fill-51"></path>
                <path d="M145.057546,20.729779 L141.475315,20.729779 L141.475315,12.8360098 L144.914315,12.8360098 C146.101085,12.8360098 147.026238,13.0303944 147.697085,13.4293944 C148.901392,14.0973175 149.510854,15.2153944 149.510854,16.7617021 C149.510854,19.399779 148.020085,20.729779 145.057546,20.729779 M150.924162,11.1654713 C149.354469,9.75362516 147.355085,9.0520867 144.959623,9.0520867 L139.847162,9.0520867 C138.410469,9.0520867 137.688469,9.77116362 137.688469,11.2034713 L137.688469,31.6430867 C137.688469,32.1970098 137.862392,32.6588559 138.213162,33.0300867 C138.558085,33.4188559 139.012623,33.6190867 139.562162,33.6190867 C140.838085,33.6190867 141.475315,32.9643175 141.475315,31.6430867 L141.475315,24.5180867 L145.408315,24.5180867 C147.697085,24.5180867 149.588315,23.8136252 151.067392,22.4310098 C152.549392,21.0381636 153.293315,19.1995482 153.293315,16.9034713 C153.293315,14.4948559 152.507008,12.5846252 150.924162,11.1654713" id="Fill-53"></path>
                <path d="M167.333585,33.6190867 L158.507354,33.6190867 C157.066277,33.6190867 156.348662,32.9014713 156.348662,31.4662405 L156.348662,11.2034713 C156.348662,9.77116362 157.066277,9.0520867 158.507354,9.0520867 L167.333585,9.0520867 C167.888969,9.0520867 168.352277,9.22893285 168.722046,9.60600978 C169.1152,9.95385593 169.313969,10.4025482 169.313969,10.9623175 C169.313969,11.5206252 169.1152,11.9737021 168.722046,12.3157021 C168.352277,12.6620867 167.888969,12.8360098 167.333585,12.8360098 L160.141354,12.8360098 L160.141354,18.3957021 L165.005354,18.3957021 C165.557815,18.3957021 166.028431,18.5813175 166.390892,18.9583944 C166.791354,19.3003944 166.982815,19.7549329 166.982815,20.3147021 C166.982815,20.8657021 166.791354,21.3173175 166.390892,21.6622405 C166.028431,22.0130098 165.557815,22.1898559 165.005354,22.1898559 L160.141354,22.1898559 L160.141354,29.8351636 L167.333585,29.8351636 C167.888969,29.8351636 168.352277,30.0149329 168.722046,30.3890867 C169.1152,30.7369329 169.313969,31.1856252 169.313969,31.7439329 C169.313969,32.2978559 169.1152,32.7509329 168.722046,33.1002405 C168.352277,33.4437021 167.888969,33.6190867 167.333585,33.6190867" id="Fill-55"></path>
                <path d="M11.6493385,33.4194405 L9.35033846,33.4194405 C9.18956923,30.6498252 8.9908,28.1520559 8.83149231,25.7171329 C8.48949231,20.2787482 8.04226154,16.9727482 8.95718462,15.1619021 C9.9598,13.1771329 11.8773385,12.8687482 13.8971846,13.106979 C14.6308769,13.1888252 15.1862615,13.6082867 15.0708,14.1242098 C14.9743385,14.5392867 14.3882615,14.7731329 13.6604154,14.5743636 C13.3666462,14.4910559 13.1693385,14.341979 12.6139538,14.1490559 C11.6566462,13.8319021 10.9814154,14.1651329 10.3997231,15.1648252 C9.66749231,16.4451329 9.46433846,17.6202098 10.3471077,24.487979 C10.9112615,28.7834405 11.2050308,31.0649021 11.6493385,33.4194405" id="Fill-57"></path>
                <path d="M22.7503077,16.9521405 C22.4141538,17.1304482 21.2668462,17.1260636 19.6693846,17.2561405 C18.7588462,17.3277559 17.0897692,17.4286021 17.0897692,17.4286021 C15.8664615,16.9784482 14.9223077,16.3280636 15.8664615,15.924679 C17.0970769,15.3897559 17.6656154,14.6955252 18.3335385,13.7455252 C18.3335385,13.7455252 19.5422308,14.3681405 20.5273077,14.8928329 C21.4027692,15.3605252 22.6567692,15.9582944 22.8204615,16.0883713 C23.0484615,16.2696021 23.1200769,16.7738329 22.7503077,16.9521405 M22.6129231,31.9592175 C22.3586154,32.2062175 22.0502308,32.3421405 21.6892308,32.3421405 C21.3194615,32.3421405 21.0052308,32.2062175 20.7509231,31.9592175 C20.4922308,31.694679 20.3723846,31.3819098 20.3723846,31.0150636 C20.3723846,30.6555252 20.4922308,30.3398329 20.7582308,30.0869867 C21.0154615,29.8356021 21.3282308,29.7099098 21.7053077,29.7099098 C22.0575385,29.7099098 22.363,29.8370636 22.6129231,30.098679 C22.876,30.3500636 22.9958462,30.6628329 22.9958462,31.0179867 C22.9958462,31.3877559 22.876,31.7078329 22.6129231,31.9592175 M24.6561538,9.05252516 L6.40738462,9.05252516 L5.624,9.05252516 L1.79330769,9.05252516 C0.803846154,9.05252516 -3.32315372e-13,9.84760209 -3.32315372e-13,10.8370636 L-3.32315372e-13,31.6362175 C-3.32315372e-13,32.6242175 0.803846154,33.4192944 1.79330769,33.4192944 L5.624,33.4192944 L6.40738462,33.4192944 L7.85138462,33.4192944 C7.68915385,30.3149867 7.58246154,27.3612175 7.33984615,22.1026021 C7.18930769,19.0012175 6.52723077,16.076679 8.11738462,13.8244482 C10.0422308,11.1059867 15.0319231,10.9218329 17.9243077,13.4795252 C17.2490769,14.442679 16.6936923,15.0784482 15.3227692,15.6689098 C14.2236923,16.1497559 14.9661538,17.0222944 16.2990769,17.6025252 C15.162,18.1754482 13.5177692,18.4999098 13.1494615,20.4232944 C12.4976154,23.8228329 13.1991538,27.3363713 14.9632308,33.4192944 L24.6561538,33.4192944 C25.6529231,33.4192944 26.448,32.6242175 26.448,31.6362175 L26.448,10.8370636 C26.448,9.84760209 25.6529231,9.05252516 24.6561538,9.05252516" id="Fill-59"></path>
                <path d="M22.1959462,31.5548098 C22.2295615,31.6878098 22.2178692,31.7097329 22.1871769,31.7316559 C22.0395615,31.7623482 22.0001,31.7389636 21.9635615,31.6878098 L21.7048692,31.2288867 L21.4607923,31.2288867 L21.4607923,31.6366559 C21.4607923,31.715579 21.4271769,31.7623482 21.3219462,31.7623482 C21.2342538,31.7623482 21.1918692,31.715579 21.1918692,31.6366559 L21.1918692,30.4265021 C21.1918692,30.3344252 21.2415615,30.2861944 21.3394846,30.2861944 L21.6814846,30.2861944 C21.8378692,30.2861944 21.9767154,30.3271175 22.0863308,30.4148098 C22.1871769,30.5068867 22.2397923,30.613579 22.2397923,30.7480405 C22.2397923,30.9131944 22.1594077,31.0447329 21.9767154,31.1616559 L22.1959462,31.5548098 Z M21.6697923,29.9851175 C21.3877154,29.9851175 21.1421769,30.0874252 20.9448692,30.2891175 C20.7373308,30.4966559 20.6379462,30.7363482 20.6379462,31.0184252 C20.6379462,31.3092713 20.7373308,31.5548098 20.9448692,31.7623482 C21.1524077,31.9611175 21.3877154,32.0634252 21.6814846,32.0634252 C21.9767154,32.0634252 22.2251769,31.9611175 22.4312538,31.7623482 C22.6271,31.5548098 22.7279462,31.3092713 22.7279462,31.0155021 C22.7279462,30.727579 22.6271,30.4849636 22.4195615,30.2861944 C22.2178692,30.0845021 21.9621,29.9851175 21.6697923,29.9851175 L21.6697923,29.9851175 Z" id="Fill-61"></path>
                <path d="M21.6816308,30.5571636 L21.4609385,30.5571636 L21.4609385,30.951779 L21.6933231,30.951779 C21.8818615,30.951779 21.9637077,30.8845482 21.9637077,30.7486252 C21.9637077,30.6200098 21.8730923,30.5571636 21.6816308,30.5571636" id="Fill-63"></path>
                <path d="M185.5958,33.721979 C185.546108,33.721979 185.496415,33.7117482 185.448185,33.6927482 C185.255262,33.6094405 185.164646,33.3872867 185.247954,33.1943636 C186.304646,30.6995175 187.706262,28.1505944 189.411877,25.6162867 C190.775492,23.5935175 192.334954,21.5751329 194.047877,19.6181329 C196.965108,16.2858252 199.354723,14.2542867 199.378108,14.2352867 C199.537415,14.0993636 199.777108,14.1198252 199.911569,14.2791329 C200.046031,14.4399021 200.027031,14.6781329 199.867723,14.8140559 C199.844338,14.8345175 197.4898,16.8353636 194.607646,20.1282098 C192.918108,22.0603636 191.379108,24.050979 190.035954,26.0474405 C188.359569,28.5379021 186.9828,31.042979 185.945108,33.4910559 C185.883723,33.6357482 185.743415,33.721979 185.5958,33.721979" id="Fill-65"></path>
                <path d="M187.202177,25.7492867 C187.691792,25.8472098 188.976485,25.9115175 191.692023,25.5855944 C194.654562,25.2333636 198.181254,24.5566713 201.624638,23.6826713 C202.991177,23.3348252 204.274408,22.9782098 205.477254,22.6128252 C203.283485,22.416979 200.512408,22.4622867 197.6551,22.7692098 C192.900715,23.2822098 189.011562,24.3915175 187.202177,25.7492867 M222.7541,24.3345175 C222.387254,24.3345175 221.932715,24.4368252 221.466485,24.6809021 C220.572023,25.1500559 219.841254,25.7375944 219.348715,26.3777482 C219.1251,26.6685944 218.955562,26.9652867 218.843023,27.2561329 C219.996177,26.9097482 221.030946,26.5005175 222.113946,25.969979 C223.139946,25.4672098 223.522869,24.9980559 223.538946,24.7262098 C223.540408,24.6867482 223.547715,24.5859021 223.388408,24.4835944 C223.243715,24.3885944 223.021562,24.3345175 222.7541,24.3345175 M208.470485,29.7012867 C208.391562,29.7085944 208.312638,29.7159021 208.232254,29.7232098 L207.406485,29.7948252 C203.360946,30.1455944 200.166023,30.4232867 197.346715,30.9070559 C194.328638,31.422979 192.048638,32.1289021 189.955715,33.1943636 C188.752869,33.8067482 188.067408,34.5725944 188.2501,35.1016713 C188.394792,35.5225944 189.091946,35.8587482 190.113562,36.001979 C191.459638,36.1905175 193.343562,36.0604405 195.5651,35.6263636 C201.196408,34.5272867 204.734792,32.5980559 206.712254,31.1715944 C207.374331,30.6951329 207.960408,30.2040559 208.470485,29.7012867 M191.450869,36.8423636 C190.923254,36.8423636 190.440946,36.8131329 190.008331,36.7517482 C188.279331,36.5105944 187.707869,35.8558252 187.532485,35.3486713 C187.208023,34.4045175 187.985562,33.3478252 189.612254,32.5191329 C191.775331,31.4171329 194.1211,30.6892867 197.2181,30.1602098 C200.0681,29.6705944 203.277638,29.3929021 207.340715,29.0392098 L208.166485,28.9675944 C208.530408,28.9354405 208.887023,28.9032867 209.234869,28.8696713 C209.366408,28.7103636 209.490638,28.5495944 209.607562,28.3888252 C210.241869,27.5075175 210.607254,26.6320559 210.662792,25.8618252 C210.753408,24.6165944 210.054792,23.6972867 208.645869,23.2032867 C208.248331,23.0644405 207.779177,22.9460559 207.247177,22.8481329 C205.725715,23.3435944 204.132638,23.8112867 202.475254,24.2453636 C199.096177,25.1310559 195.559254,25.8413636 192.516331,26.2462098 C189.7131,26.6189021 187.645023,26.6890559 186.842638,26.4376713 C186.516715,26.3368252 186.329638,26.1629021 186.285792,25.9232098 C186.240485,25.6805944 186.358869,25.4467482 186.636562,25.2275175 C187.634792,24.4412098 189.186946,23.7513636 191.247715,23.176979 C193.077562,22.6654405 195.265485,22.264979 197.574715,22.0165175 C199.794792,21.7768252 202.016331,21.6891329 203.996715,21.7622098 C205.203946,21.8075175 206.284023,21.9112867 207.200408,22.0691329 C215.868792,19.2220559 220.015177,16.070979 221.821638,14.2747482 C223.161869,12.9432867 224.6921,11.0242867 224.366177,9.44874824 C224.173254,8.50459439 223.315331,7.72559439 221.818715,7.13367132 C217.841869,5.56105593 212.105331,6.26259439 207.552638,7.04890209 C203.825715,7.70951747 200.2201,8.63320978 196.839562,9.79367132 C193.3231,11.0009021 190.109177,12.4434405 187.286946,14.0818252 C181.918715,17.1992867 179.862331,20.535979 180.226254,22.3190559 C180.426485,23.2997482 181.309254,23.6095944 182.013715,23.6987482 C182.221254,23.7250559 182.368869,23.9135944 182.342562,24.1225944 C182.317715,24.3301329 182.127715,24.4777482 181.920177,24.4514405 C181.2581,24.3681329 180.711485,24.1547482 180.292023,23.8171329 C179.874023,23.4780559 179.593408,23.0118252 179.483792,22.4695944 C179.245562,21.3047482 179.7761,19.8154405 180.974562,18.2764405 C182.2841,16.5971329 184.3361,14.9192867 186.906946,13.4255944 C192.558715,10.1444405 199.653023,7.6802867 207.4211,6.30205593 C212.074638,5.49820978 217.945638,4.78644055 222.097869,6.42774824 C223.847331,7.12051747 224.860177,8.08513285 225.1101,9.2952867 C225.424331,10.826979 224.497715,12.6831329 222.356562,14.8125944 C220.323562,16.8339021 217.349331,18.730979 213.518638,20.4482867 C211.988408,21.1337482 210.345638,21.7826713 208.5991,22.3906713 C208.701408,22.4228252 208.800792,22.454979 208.895792,22.4871329 C209.765408,22.7925944 210.424562,23.2500559 210.858638,23.8478252 C211.286869,24.4382867 211.475408,25.133979 211.419869,25.9159021 C211.355562,26.8103636 210.966792,27.7822867 210.272562,28.7659021 C213.103562,28.4692098 215.390869,28.1140559 217.220715,27.6858252 C217.482331,27.6244405 217.736638,27.5615944 217.982177,27.4972867 C218.249638,26.2067482 219.398408,24.9103636 221.114254,24.0100559 C222.099331,23.4941329 223.1531,23.4283636 223.7991,23.8463636 C224.136715,24.0641329 224.317946,24.4002867 224.296023,24.7700559 C224.268254,25.228979 223.926254,25.9261329 222.447177,26.6510559 C221.206331,27.2575944 220.028331,27.7121329 218.680792,28.0921329 C218.689562,28.705979 219.006715,29.1926713 219.6001,29.5010559 C220.536946,29.9877482 222.274715,29.9044405 224.3691,29.2701329 C226.538023,28.6139021 228.8721,27.451979 230.940177,25.9992098 C231.111177,25.8793636 231.347946,25.9202867 231.467792,26.0912867 C231.5891,26.2622867 231.546715,26.4990559 231.375715,26.6189021 C229.243331,28.116979 226.833254,29.3154405 224.588331,29.9965175 C222.273254,30.6965944 220.376177,30.7609021 219.250792,30.1733636 C218.465946,29.7670559 218.005562,29.1035175 217.933946,28.2923636 C217.7571,28.3376713 217.577331,28.3800559 217.393177,28.4239021 C215.345562,28.9018252 212.849254,29.2789021 209.616331,29.5945944 C207.207715,32.3408252 202.457715,35.0534405 195.709792,36.3702867 C194.105023,36.6830559 192.661023,36.8423636 191.450869,36.8423636" id="Fill-67"></path>
                <path d="M240.894862,29.7856175 C240.840785,29.7856175 240.785246,29.7739252 240.732631,29.749079 C240.547015,29.6613867 240.465169,29.4392329 240.549938,29.2506944 C240.644938,29.0402329 240.744323,28.8326944 240.848092,28.6266175 C241.4254,27.4018482 242.692554,24.6234636 243.112015,22.9500021 C243.163169,22.7468482 243.369246,22.624079 243.570938,22.6752329 C243.775554,22.7263867 243.898323,22.9324636 243.847169,23.1341559 C243.682015,23.7918482 243.399938,24.5971559 243.0784,25.4112329 C243.231862,25.2519252 243.388246,25.1013867 243.543169,24.9581559 C244.782554,23.8298482 245.982477,23.3855405 246.922246,23.707079 C247.540477,23.9190021 247.883938,24.4159252 248.186477,24.8529252 C248.597169,25.4448482 248.918708,25.911079 249.816092,25.8862329 C250.989708,25.854079 252.876554,24.980079 255.584785,23.2160021 C255.758708,23.1020021 255.994015,23.1516944 256.108015,23.3256175 C256.223477,23.5024636 256.172323,23.7363098 255.9984,23.8517713 C253.130862,25.7196175 251.1724,26.6082329 249.836554,26.6447713 C248.529938,26.6813098 247.995015,25.9066944 247.563862,25.284079 C247.292015,24.8938482 247.059631,24.5562329 246.676708,24.4246944 C246.020477,24.1996175 245.063169,24.5986175 244.054708,25.5179252 C243.123708,26.367079 242.224862,27.5962329 241.532092,28.9540021 C241.364015,29.3091559 241.2544,29.5356944 241.2354,29.5736944 C241.169631,29.7081559 241.035169,29.7856175 240.894862,29.7856175" id="Fill-69"></path>
                <path d="M277.694938,26.5462636 C277.621862,26.5462636 277.548785,26.5258021 277.484477,26.4819559 C277.310554,26.3664944 277.263785,26.1326482 277.379246,25.9587252 C277.747554,25.3989559 278.180169,24.8362636 278.598169,24.2925713 C279.546708,23.0619559 280.525938,21.7904175 280.829938,20.4589559 C280.876708,20.2543405 281.079862,20.1257252 281.284477,20.1739559 C281.487631,20.2192636 281.614785,20.423879 281.569477,20.6270329 C281.484708,20.9953405 281.359015,21.3519559 281.202631,21.7027252 C283.107015,20.0453405 284.656246,19.3467252 285.806477,19.625879 C286.277092,19.739879 286.620554,20.0263405 286.800323,20.4531098 C287.099938,21.1721867 286.933323,22.3165713 286.300477,23.8541098 C286.487554,23.6699559 286.681938,23.4799559 286.883631,23.292879 C288.714938,21.5799559 290.047862,20.8374944 290.9584,21.0231098 C291.309169,21.0947252 291.556169,21.2525713 291.695015,21.4937252 C291.940554,21.9204944 291.766631,22.4349559 291.582477,22.9801098 C291.411477,23.4858021 291.234631,24.0075713 291.4334,24.3437252 C291.583938,24.6009559 291.968323,24.7865713 292.571938,24.8961867 C293.403554,25.0452636 295.338631,24.9926482 297.791092,24.5337252 C299.775862,24.1624944 302.753015,23.4039559 305.671708,21.8912636 C305.857323,21.7962636 306.085323,21.867879 306.181785,22.0534944 C306.278246,22.2391098 306.206631,22.4685713 306.019554,22.5650329 C303.019015,24.1186482 299.9644,24.8991098 297.9314,25.2791098 C295.690862,25.6971098 293.533631,25.838879 292.437477,25.6415713 C291.594169,25.4881098 291.051938,25.1899559 290.780092,24.7295713 C290.405938,24.0923405 290.660246,23.3411098 290.8634,22.7374944 C290.970092,22.4261867 291.113323,22.0023405 291.038785,21.8708021 C291.013938,21.829879 290.927708,21.7904175 290.8064,21.7670329 C290.191092,21.6413405 288.948785,22.399879 287.401015,23.8468021 C286.142631,25.0233405 285.096169,26.2598021 285.085938,26.2729559 C284.957323,26.4234944 284.736631,26.4512636 284.575862,26.3358021 C284.415092,26.2218021 284.369785,26.0025713 284.470631,25.8330329 C284.476477,25.8242636 285.045015,24.8713405 285.5244,23.7474175 C286.120708,22.3487252 286.325323,21.2818021 286.100246,20.746879 C286.015477,20.5422636 285.864938,20.4209559 285.628169,20.3624944 C284.741015,20.1476482 283.321862,20.8491867 281.6294,22.3370329 C280.129862,23.6553405 278.731169,25.3171098 278.009169,26.3796482 C277.936092,26.4878021 277.816246,26.5462636 277.694938,26.5462636" id="Fill-71"></path>
                <path d="M259.193908,22.0125713 C258.888446,22.0125713 258.511369,22.1631098 258.173754,22.4349559 C257.644677,22.8588021 257.3626,23.4404944 257.454677,23.9154944 C257.574523,24.5541867 258.363754,24.7661098 259.196831,24.8084944 C259.698138,24.1332636 259.983138,23.4872636 259.955369,23.0517252 C259.929062,22.684879 259.822369,22.2171867 259.474523,22.0666482 C259.392677,22.0301098 259.297677,22.0125713 259.193908,22.0125713 M255.494754,28.1466482 C254.818062,28.1466482 254.300677,27.8075713 254.036138,27.1732636 C254.034677,27.168879 254.033215,27.1659559 254.031754,27.1615713 C253.825677,26.6208021 253.900215,25.9178021 254.245138,25.1285713 C254.533062,24.4723405 254.999292,23.7927252 255.522523,23.2665713 C255.670138,23.1174944 255.909831,23.1174944 256.057446,23.2651098 C256.206523,23.4112636 256.207985,23.6524175 256.058908,23.8014944 C255.599985,24.2633405 255.192215,24.8581867 254.939369,25.4325713 C254.680677,26.0244944 254.609062,26.5404175 254.737677,26.8868021 C254.857523,27.1703405 255.105985,27.5196482 255.870369,27.3413405 C256.666908,27.1542636 257.713369,26.4556482 258.600523,25.5173405 C258.601985,25.5144175 258.603446,25.5129559 258.606369,25.5114944 C257.828831,25.3945713 256.894908,25.0452636 256.710754,24.0572636 C256.533908,23.1511098 257.105369,22.3194944 257.698754,21.8430329 C258.385677,21.2934944 259.180754,21.1122636 259.777062,21.3709559 C260.161446,21.5375713 260.634985,21.9555713 260.712446,22.9961867 L260.712446,22.9991098 C260.751908,23.5983405 260.471292,24.242879 260.123446,24.7997252 C260.500523,24.7763405 260.832292,24.7383405 261.050062,24.7120329 C263.297908,24.4416482 265.167215,24.0134175 266.975138,22.8105713 C267.149062,22.6951098 267.384369,22.741879 267.501292,22.9158021 C267.616754,23.0897252 267.569985,23.3264944 267.396062,23.4419559 C265.462446,24.7281098 263.496677,25.1811867 261.139215,25.4661867 C260.672985,25.5202636 260.116138,25.5743405 259.560754,25.5743405 C259.405831,25.762879 259.2626,25.9207252 259.151523,26.0391098 C258.153292,27.0943405 256.991369,27.8572636 256.044292,28.0794175 C255.851369,28.1232636 255.667215,28.1466482 255.494754,28.1466482" id="Fill-73"></path>
                <path d="M269.408892,21.4127559 C268.985046,21.8234482 268.755585,22.2385252 268.759969,22.5819867 C268.762892,22.7997559 268.862277,22.9956021 269.062508,23.1797559 C269.493662,23.5685252 270.405662,23.8462175 271.550046,23.9704482 C272.063046,23.3989867 272.435738,22.8114482 272.552662,22.3539867 C272.685662,21.7065252 272.527815,21.2476021 272.086431,20.9903713 C271.386354,20.5826021 270.1382,20.7799098 269.408892,21.4127559 M267.7442,26.9052175 C267.519123,26.9052175 267.301354,26.8789098 267.093815,26.8277559 C266.591046,26.7035252 266.2432,26.3907559 266.085354,25.9245252 C265.755046,24.9526021 266.370354,23.5392944 266.8892,22.8903713 C267.020738,22.726679 267.257508,22.6989098 267.4212,22.8304482 C267.584892,22.9605252 267.6112,23.2002175 267.481123,23.3624482 C267.051431,23.9002944 266.586662,25.0417559 266.802969,25.6804482 C266.876046,25.899679 267.028046,26.0297559 267.276508,26.0911405 C268.128585,26.3030636 269.296354,25.8938329 270.4802,24.9701405 C270.614662,24.8649098 270.7462,24.7552944 270.873354,24.6442175 C269.837123,24.4702944 269.0172,24.1604482 268.552431,23.7395252 C268.197277,23.4150636 268.007277,23.0189867 268.001431,22.5922175 C267.994123,22.0295252 268.301046,21.4302944 268.888585,20.8602944 C268.892969,20.8559098 268.897354,20.8529867 268.9032,20.8486021 C269.882431,19.990679 271.482815,19.7612175 272.469354,20.3370636 C272.894662,20.5840636 273.566969,21.1979098 273.293662,22.5162175 C273.2922,22.5206021 273.2922,22.5264482 273.290738,22.5322944 C273.175277,22.9868329 272.890277,23.5100636 272.485431,24.0362175 C273.017431,24.0537559 273.578662,24.0435252 274.151585,23.999679 C277.019123,23.7789867 279.379508,22.8465252 280.466892,21.5077559 C280.598431,21.3440636 280.838123,21.320679 281.000354,21.4522175 C281.162585,21.5837559 281.187431,21.8219867 281.055892,21.9842175 C280.396738,22.7968329 279.3912,23.4574482 278.068508,23.9485252 C276.934354,24.3679867 275.601431,24.6471405 274.210046,24.7538329 C273.376969,24.8181405 272.578969,24.8181405 271.851123,24.7611405 C271.574892,25.0417559 271.270892,25.3150636 270.946431,25.5679098 C270.329662,26.0487559 269.6822,26.4214482 269.071277,26.6465252 C268.602123,26.8189867 268.159277,26.9052175 267.7442,26.9052175" id="Fill-75"></path>
                <path d="M261.348362,0.75741747 C261.076515,0.75741747 260.788592,0.774955931 260.484592,0.811494393 C259.293438,0.956186701 258.182669,1.34641747 257.460669,1.64895593 C255.033054,2.6471867 252.716515,4.08826362 250.572438,5.93126362 C248.663669,7.57257132 246.827977,9.58657132 245.119438,11.9206482 C243.283746,14.4271867 241.731592,17.0959559 240.417669,19.6521867 C240.861977,19.6404944 241.326746,19.6112636 241.809054,19.5644944 C245.125285,19.245879 249.020285,18.1044175 252.498746,16.433879 C256.395208,14.5616482 259.506823,12.1983405 261.495977,9.59826362 C262.261823,8.59564824 263.053977,7.5111867 263.653208,6.3711867 C264.376669,4.99441747 264.645592,3.8441867 264.452669,2.9511867 C264.264131,2.08741747 263.840285,1.49403285 263.154823,1.13595593 C262.669592,0.883109778 262.063054,0.75741747 261.348362,0.75741747 M234.703054,25.0248021 C234.074592,25.0248021 233.529438,25.1782636 233.213746,25.2922636 C232.119054,25.6854175 231.407285,26.3781867 231.351746,26.8210329 C231.299131,27.2375713 231.556362,27.5284175 232.116131,27.6804175 C233.405208,28.0326482 235.816746,27.415879 236.740438,25.7161098 C236.078362,25.1855713 235.347592,25.0248021 234.703054,25.0248021 M232.914131,28.5354175 C232.558977,28.5354175 232.221362,28.4944944 231.917362,28.4111867 C230.990746,28.1583405 230.499669,27.529879 230.600515,26.7260329 C230.701362,25.9236482 231.670362,25.040879 232.957977,24.5790329 C233.709208,24.3086482 234.491131,24.2121867 235.216054,24.2984175 C235.904438,24.3802636 236.522669,24.6184944 237.061977,25.0087252 C237.684592,23.5822636 238.390515,22.0213405 239.194362,20.3961098 C238.676977,20.3698021 238.190285,20.3186482 237.732823,20.2382636 C236.461285,20.0175713 235.465977,19.5966482 234.777592,18.9842636 C234.619746,18.8454175 234.605131,18.6057252 234.745438,18.4493405 C234.884285,18.2929559 235.123977,18.2783405 235.2789,18.4171867 C236.138285,19.1801098 237.626131,19.6010329 239.567054,19.6521867 C240.932131,16.9614944 242.561746,14.1304944 244.508515,11.4719559 C246.250669,9.09257132 248.125823,7.03472516 250.078438,5.35687901 C252.2839,3.45980209 254.669131,1.97780209 257.171285,0.948879008 C257.934208,0.628802085 259.116592,0.215186701 260.395438,0.0602636238 C261.6509,-0.0917363762 262.697362,0.0441867007 263.504131,0.463648239 C264.389823,0.925494393 264.958362,1.70741747 265.193669,2.79041747 C265.7359,5.29987901 263.279054,8.51380209 262.098131,10.0586482 C259.493669,13.4625713 255.619131,15.7761867 252.826131,17.1164175 C249.271669,18.8249559 245.283131,19.9912636 241.882131,20.3201098 C241.234669,20.3814944 240.6179,20.4136482 240.031823,20.4165713 C239.081823,22.3151098 238.263362,24.1376482 237.560362,25.7643405 C237.557438,25.7687252 237.555977,25.7760329 237.553054,25.7804175 C237.108746,26.8005713 236.199669,27.6307252 234.9939,28.1159559 C234.308438,28.3921867 233.580592,28.5354175 232.914131,28.5354175" id="Fill-77"></path>
                <path d="M236.5899,32.5064175 C236.4569,32.5064175 236.326823,32.4362636 236.258131,32.3120329 C236.199669,32.2082636 234.855054,29.7236482 237.142362,24.8245713 C237.231515,24.6360329 237.456592,24.5527252 237.646592,24.641879 C237.836592,24.7310329 237.918438,24.9561098 237.829285,25.1461098 C237.221285,26.4498021 236.509515,28.3965713 236.576746,30.265879 C236.616208,31.3737252 236.917285,31.937879 236.920208,31.9422636 C237.022515,32.1249559 236.956746,32.3544175 236.774054,32.4581867 C236.715592,32.4903405 236.652746,32.5064175 236.5899,32.5064175" id="Fill-79"></path>
            </g>
        </g>
    </g>
</svg>