<?xml version="1.0" encoding="UTF-8"?>
<svg width="23px" height="25px" viewBox="0 0 23 25" version="1.1" xmlns="http://www.w3.org/2000/svg" xmlns:xlink="http://www.w3.org/1999/xlink">
    <title>A5A847A6-5519-4AEF-B63E-79A8AA342AD4</title>
    <g id="Anasayfa" stroke="none" stroke-width="1" fill="none" fill-rule="evenodd">
        <g id="Anasayfa---1200px-penelope" transform="translate(-1298.000000, -106.000000)" fill="#2A353B">
            <g id="Group" transform="translate(1298.000000, 106.000000)">
                <path d="M5.29017857,6.82392857 C5.29017857,5.60571429 5.61464286,4.69857143 6.23035714,3.77821429 C6.58125,3.25303571 7.31392857,2.55339286 7.90553571,2.23339286 C8.05767857,2.14946429 8.17464286,2.07446429 8.3425,2.00392857 C8.64928571,1.87803571 8.93178571,1.75 9.28696429,1.67285714 C10.47,1.41678571 11.4455357,1.4875 12.5776786,1.93982143 C13.0542857,2.12964286 13.7539286,2.58642857 14.1380357,2.95732143 L14.5926786,3.44946429 C15.2305357,4.2925 15.7667857,5.38714286 15.7667857,6.49071429 C15.7667857,7.1175 15.78,7.51035714 15.5967857,8.13714286 C15.3826786,8.87196429 15.1951786,9.23178571 14.7867857,9.82767857 C14.5882143,10.1189286 14.1533929,10.5735714 13.8708929,10.8032143 C13.7473214,10.9046429 13.6458929,10.9907143 13.5089286,11.08125 C13.1028571,11.3505357 13.1183929,11.3305357 12.6925,11.5425 C12.0657143,11.8558929 11.2755357,12.0103571 10.4258929,12.0103571 C9.05964286,12.0103571 7.74,11.3814286 6.8175,10.4589286 C6.03392857,9.67535714 5.29017857,8.37982143 5.29017857,6.82392857 M3.75625,6.54357143 C3.75625,7.5125 3.84910714,8.15035714 4.12482143,8.98678571 C4.32571429,9.59589286 4.60607143,10.0991071 4.92821429,10.5846429 C5.16660714,10.9444643 5.44017857,11.2533929 5.74482143,11.5578571 C6.20821429,12.0214286 6.7225,12.4164286 7.30071429,12.7342857 C7.38910714,12.7828571 7.43535714,12.7828571 7.48839286,12.8533929 C7.24339286,12.86 6.2325,13.2639286 6.00517857,13.3653571 C5.00767857,13.8157143 4.08517857,14.3807143 3.25321429,15.0846429 C2.98607143,15.3119643 2.70357143,15.5503571 2.47410714,15.8130357 C2.42553571,15.8658929 2.42321429,15.8858929 2.37035714,15.9410714 C2.32625,15.9896429 2.29089286,16.0182143 2.24232143,16.0667857 C2.185,16.1264286 2.18053571,16.1507143 2.1275,16.2080357 L1.9025,16.4683929 C0.785714286,17.8898214 1.77635684e-14,19.5848214 1.77635684e-14,21.4651786 C1.77635684e-14,22.5817857 0.390714286,23.6830357 1.25357143,24.2503571 C1.40142857,24.3496429 1.49642857,24.4114286 1.67071429,24.4975 C2.60642857,24.9653571 3.50464286,24.9410714 4.54857143,24.9410714 L13.1891071,24.9410714 C13.5666071,24.9410714 14.1955357,24.9785714 14.5419643,24.9389286 C15.2482143,24.855 15.3939286,23.7714286 14.7075,23.4757143 C14.4516071,23.3675 13.9748214,23.4073214 13.6239286,23.4073214 L4.19107143,23.4073214 C3.5025,23.4073214 2.79857143,23.3873214 2.22910714,23.0453571 C1.68178571,22.7164286 1.53392857,22.0521429 1.53392857,21.4142857 C1.53392857,19.89375 2.27535714,18.4371429 3.12732143,17.3842857 C3.21125,17.2828571 3.27964286,17.21 3.35910714,17.10625 C3.64160714,16.7421429 4.29035714,16.1882143 4.69214286,15.8835714 C4.79357143,15.8064286 4.88625,15.7401786 4.98785714,15.6694643 C5.40053571,15.3914286 5.84196429,15.1421429 6.28767857,14.9235714 C6.51946429,14.8110714 6.73803571,14.7094643 6.99392857,14.6101786 C8.72642857,13.9348214 10.5008929,13.7980357 12.315,14.16 C13.6126786,14.4182143 14.8905357,15.0051786 15.9233929,15.8151786 C16.0778571,15.9344643 16.20375,16.0733929 16.3980357,16.1330357 C16.8416071,16.2698214 17.4021429,15.9785714 17.4021429,15.4864286 C17.4021429,14.9169643 17.1064286,14.7646429 16.7025,14.4755357 C16.2346429,14.1378571 15.7358929,13.82 15.2128571,13.5617857 C14.6721429,13.2903571 14.0916071,13.0189286 13.4935714,12.8798214 C13.4980357,12.8755357 13.5046429,12.8644643 13.5067857,12.8689286 L13.8753571,12.6746429 C14.4778571,12.3258929 15.0935714,11.8669643 15.5439286,11.3283929 C15.5925,11.2710714 15.6342857,11.2423214 15.6828571,11.185 C16.2016071,10.5714286 16.6473214,9.85410714 16.9078571,9.08821429 C17.2498214,8.08196429 17.3005357,7.55660714 17.3005357,6.46642857 C17.3005357,5.15767857 16.7753571,3.85767857 16.0735714,2.86232143 C15.63,2.23339286 15.0914286,1.67714286 14.4535714,1.23803571 C13.4383929,0.53625 12.1760714,-3.55271368e-14 10.8364286,-3.55271368e-14 C9.75714286,-3.55271368e-14 9.18767857,0.0528571429 8.19464286,0.399464286 C7.63178571,0.595714286 7.08446429,0.891607143 6.60553571,1.23803571 C6.43553571,1.35946429 6.30767857,1.46982143 6.14428571,1.59553571 L5.71839286,1.98839286 C4.55964286,3.14482143 3.75625,4.8575 3.75625,6.54357143" id="Fill-198"></path>
                <path d="M19.2020893,23.6858214 C19.4167321,23.6858214 19.5906607,23.5118929 19.5906607,23.29725 L19.5906607,22.9526071 C20.0319107,22.7931429 20.3481607,22.3701071 20.3481607,21.8743929 C20.3481607,21.2424286 19.8340536,20.7283214 19.2020893,20.7283214 C18.570125,20.7283214 18.0560179,21.2424286 18.0560179,21.8743929 C18.0560179,22.3701071 18.3722679,22.7931429 18.8135179,22.9526071 L18.8135179,23.29725 C18.8135179,23.5118929 18.9874464,23.6858214 19.2020893,23.6858214 M19.2020893,21.5054643 C19.4054821,21.5054643 19.5710179,21.671 19.5710179,21.8743929 C19.5710179,22.0777857 19.4054821,22.2433214 19.2020893,22.2433214 C18.9986964,22.2433214 18.8331607,22.0777857 18.8331607,21.8743929 C18.8331607,21.671 18.9986964,21.5054643 19.2020893,21.5054643" id="Fill-200"></path>
                <path d="M21.4987679,19.4952143 L21.4987679,18.7562857 C21.4987679,17.4900357 20.4684107,16.4598571 19.2021607,16.4598571 C17.9359107,16.4598571 16.9055536,17.4900357 16.9055536,18.7562857 L16.9055536,19.4952143 C16.3551964,19.5136071 15.912875,19.9659286 15.912875,20.52075 L15.912875,23.8553929 C15.912875,24.422 16.3737679,24.8827143 16.9401964,24.8827143 L21.464125,24.8827143 C22.0307321,24.8827143 22.4914464,24.422 22.4914464,23.8553929 L22.4914464,23.0948571 C22.4914464,22.8802143 22.3175179,22.7062857 22.102875,22.7062857 C21.8882321,22.7062857 21.7143036,22.8802143 21.7143036,23.0948571 L21.7143036,23.8553929 C21.7143036,23.9911071 21.5996607,24.1055714 21.464125,24.1055714 L16.9401964,24.1055714 C16.8046607,24.1055714 16.6901964,23.9911071 16.6901964,23.8553929 L16.6901964,20.52075 C16.6901964,20.3852143 16.8046607,20.27075 16.9401964,20.27075 L21.464125,20.27075 C21.5996607,20.27075 21.7143036,20.3852143 21.7143036,20.52075 L21.7143036,21.2812857 C21.7143036,21.4959286 21.8882321,21.6700357 22.102875,21.6700357 C22.3175179,21.6700357 22.4914464,21.4959286 22.4914464,21.2812857 L22.4914464,20.52075 C22.4914464,19.9661071 22.049125,19.5137857 21.4987679,19.4952143 L21.4987679,19.4952143 Z M20.7214464,19.4934286 L17.6826964,19.4934286 L17.6826964,18.7562857 C17.6826964,17.9186071 18.3643036,17.237 19.2021607,17.237 C20.0398393,17.237 20.7214464,17.9186071 20.7214464,18.7562857 L20.7214464,19.4934286 Z" id="Fill-202"></path>
            </g>
        </g>
    </g>
</svg>