<?xml version="1.0" encoding="UTF-8"?>
<svg width="45px" height="45px" viewBox="0 0 45 45" version="1.1" xmlns="http://www.w3.org/2000/svg" xmlns:xlink="http://www.w3.org/1999/xlink">
    <title>203D0F10-FB64-432F-8147-6EB06D092D79</title>
    <g id="Anasayfa" stroke="none" stroke-width="1" fill="none" fill-rule="evenodd">
        <g id="Anasayfa---1200px-penelope" transform="translate(-1187.000000, -96.000000)">
            <g id="Group-34" transform="translate(1187.000000, 96.000000)">
                <rect id="Rectangle" stroke="#EAF0F5" fill="#FFFFFF" x="0.5" y="0.5" width="44" height="44" rx="5"></rect>
                <g id="Group" transform="translate(14.000000, 14.000000)" fill="#2A353B">
                    <path d="M10.2930079,6.30861053 C10.109736,6.30861053 9.9609114,6.45728596 9.9609114,6.64070702 C9.9609114,6.82397895 10.109736,6.97265439 10.2930079,6.97265439 C10.4762798,6.97265439 10.6251044,6.82397895 10.6251044,6.64070702 C10.6251044,6.45728596 10.4762798,6.30861053 10.2930079,6.30861053" id="Fill-286"></path>
                    <path d="M16.6109386,14.732886 L12.1790088,10.3009561 C12.9010614,9.21340351 13.2813246,7.9540614 13.2813246,6.64058772 C13.2813246,2.97902632 10.3022982,0 6.64073684,0 C2.97902632,0 0,2.97902632 0,6.64058772 C0,10.3022982 2.97902632,13.2813246 6.64073684,13.2813246 C7.9540614,13.2813246 9.21340351,12.9009123 10.3009561,12.1790088 L11.526,13.4040526 C11.5261491,13.4042018 11.5262982,13.4043509 11.5264474,13.4045 L14.732886,16.6109386 C14.9838596,16.8617632 15.3172982,17 15.6719123,17 C16.0265263,17 16.3599649,16.8617632 16.6107895,16.6110877 C16.8617632,16.3602632 17,16.0266754 17,15.6719123 C17,15.317 16.8617632,14.9835614 16.6109386,14.732886 L16.6109386,14.732886 Z M10.1448246,11.4791754 C10.1448246,11.4793246 10.1448246,11.4793246 10.1446754,11.4793246 C9.11990351,12.2237456 7.90813158,12.6172807 6.64073684,12.6172807 C3.34512281,12.6172807 0.66404386,9.93620175 0.66404386,6.64058772 C0.66404386,3.34512281 3.34512281,0.66404386 6.64073684,0.66404386 C9.93620175,0.66404386 12.6172807,3.34512281 12.6172807,6.64058772 C12.6172807,7.90813158 12.2237456,9.11990351 11.4793246,10.1446754 C11.1068158,10.657807 10.6579561,11.1068158 10.1448246,11.4791754 L10.1448246,11.4791754 Z M10.8413772,11.7802544 C11.1851053,11.4991579 11.4991579,11.1849561 11.7802544,10.8413772 L12.7222632,11.783386 C12.4357982,12.1214474 12.1214474,12.4357982 11.783386,12.7222632 L10.8413772,11.7802544 Z M16.1413509,16.1413509 C16.0159386,16.2669123 15.8492193,16.3359561 15.6719123,16.3359561 C15.4947544,16.3359561 15.3280351,16.2669123 15.2024737,16.1413509 L12.2541667,13.1930439 C12.5904386,12.9044912 12.9044912,12.5904386 13.1930439,12.2541667 L16.1415,15.2026228 C16.2669123,15.327886 16.3359561,15.4946053 16.3359561,15.6719123 C16.3359561,15.8492193 16.2669123,16.0159386 16.1413509,16.1413509 L16.1413509,16.1413509 Z" id="Fill-288"></path>
                    <path d="M6.64066228,1.32814737 C3.71129386,1.32814737 1.32816228,3.71127895 1.32816228,6.64064737 C1.32816228,9.57001579 3.71129386,11.9531474 6.64066228,11.9531474 C9.5700307,11.9531474 11.9531623,9.57001579 11.9531623,6.64064737 C11.9531623,3.71127895 9.5700307,1.32814737 6.64066228,1.32814737 M6.64066228,11.2891035 C4.07753947,11.2891035 1.99220614,9.20377018 1.99220614,6.64064737 C1.99220614,4.07752456 4.07753947,1.99219123 6.64066228,1.99219123 C9.20378509,1.99219123 11.2891184,4.07752456 11.2891184,6.64064737 C11.2891184,9.20377018 9.20378509,11.2891035 6.64066228,11.2891035" id="Fill-290"></path>
                    <path d="M10.3615746,5.21533158 C10.0757061,4.47120877 9.57778509,3.83490175 8.92194298,3.37545439 C8.25029386,2.90497193 7.46143421,2.65623509 6.64066228,2.65623509 C6.45739035,2.65623509 6.30856579,2.80491053 6.30856579,2.98833158 C6.30856579,3.17160351 6.45739035,3.32027895 6.64066228,3.32027895 C8.00528509,3.32027895 9.25150439,4.17758596 9.74167105,5.4534807 C9.79237281,5.58560351 9.91823246,5.66657719 10.0516974,5.66657719 C10.091364,5.66657719 10.1316272,5.6594193 10.1706974,5.64435789 C10.3418904,5.57859474 10.4273377,5.38652456 10.3615746,5.21533158" id="Fill-292"></path>
                </g>
            </g>
        </g>
    </g>
</svg>