<svg xmlns="http://www.w3.org/2000/svg" width="159" height="185" viewBox="0 0 159 185">
    <defs>
        <linearGradient id="a" x1="50%" x2="50%" y1="100%" y2="-50.836%">
            <stop offset="0%" stop-color="#EDEDED"/>
            <stop offset="100%" stop-color="#FCFCFC"/>
        </linearGradient>
    </defs>
    <g fill="none" fill-rule="evenodd">
        <path fill="url(#a)" fill-rule="nonzero" d="M77.463 197.36c34.973 4.16 92.334-16.282 92.334-58.227 0-26.87-9.786-51.347-36.91-43.076-11.835 3.609-27.694 24.774-47.789 24.774-20.095 0-67.386-15.446-67.386 18.302 0 26.598 24.778 54.065 59.751 58.226z" transform="matrix(-1 0 0 1 176.51 -13)"/>
        <path fill="url(#a)" fill-rule="nonzero" d="M131.678 96.136c-3.83 5.791-17.589 14.9-26.703 14.9-6.292 0-16.701-4.222-23.282-8.914C77.79 99.34 77.027 91.73 94.21 85.815c45.996-15.83 40.196 6.195 37.467 10.32z" transform="translate(-11 -13)"/>
        <path fill="#DDD" d="M76.35 168.06l-4.693-18.219 15.47-5.776 3.292 16.928z"/>
        <path fill="#CCC" d="M76.35 168.06l-10.038-5.771-4.052-14.596 9.397 2.148zM62.26 147.693l13.002-4.606 11.866.978-15.47 5.776z"/>
        <path fill="#9B9B9B" fill-rule="nonzero" d="M87.171 143.323c.198.01.375.152.416.36l3.291 16.928a.446.446 0 0 1-.237.484l-14.07 7.066a.445.445 0 0 1-.427-.014l-10.034-5.768a.446.446 0 0 1-.208-.268l-4.044-14.57a.535.535 0 0 1-.015-.231.43.43 0 0 1 .311-.342l12.98-4.599a.447.447 0 0 1 .186-.024l11.851.978zm2.766 17.126l-3.126-16.078-14.6 5.451 4.454 17.293 13.272-6.666zm-18.623-10.53l-8.403-1.92 3.803 13.697 8.96 5.151-4.36-16.928zm.333-.84l13.475-5.03-9.78-.807-11.464 4.062 7.77 1.776z"/>
        <g fill-rule="nonzero" transform="rotate(-14 46.823 50.868)">
            <path fill="#B5B5B5" d="M61.771 134.45c15.598-19.434 38.14-62.475 38.14-83.43 0-27.561-22.342-49.905-49.901-49.905C22.45 1.115.109 23.459.109 51.02c0 12.963 8.627 34.38 18.9 53.43 6.325 11.73 13.274 22.562 19.217 29.973 0 0 23.517.062 23.545.027z"/>
            <path fill="#B5B5B5" d="M62.048 134.45c14.99-18.678 37.518-60.668 37.518-80.805 0-26.49-16.64-48.11-48.821-47.338-22.894.548-7.248 102.196 0 128.144 0 0 11.3.004 11.303 0z"/>
            <path fill="#CCC" d="M49.396 134.464C34.902 112.644 26.384 4.666 52.45 6.305c70.789 4.45 16.495 115.38 6.577 128.139 0 0-9.632 0-9.632.02z"/>
            <path fill="#CCC" d="M51.475 134.44C65.912 112.63 73.919 4.671 47.945 6.304c-70.59 4.438-15.934 115.502-6.077 128.153 0-.019 9.607-.019 9.607-.019z"/>
            <path fill="#E5E5E5" d="M55.598 134.448C74.306 96.788 90.256 13.83 50.06 6.287c-2.42 0-6.64 2.255-8.92 3.859-18.856 13.267-11.59 92.174 4.583 124.302 4.873 0 9.85.05 9.875 0z"/>
            <path stroke="#9B9B9B" stroke-linecap="round" stroke-width="2.339" d="M43.787 136.426l3.322 13.84M59.285 135.715l-3.417 13.709"/>
            <path stroke="#919191" stroke-linecap="round" stroke-width="2.339" d="M50.457 135.893v12.476"/>
            <rect width="27.886" height="2.936" x="37.069" y="132.934" fill="#9B9B9B" rx="1.468"/>
            <path fill="#DDD" d="M51.371 6.162c-10.92-2.693-18.813-2.58-23.679.34 6.901-3.48 14.447-5.258 22.639-5.336.77.61 1.223 1.133 1.356 1.57.134.438.029 1.58-.316 3.426z"/>
            <path fill="#CCC" d="M51.124 6.156c7.251-3.106 14.425-3.043 21.521.187-6.43-3.051-13.877-4.77-22.337-5.155.03 1.269.092 2.186.185 2.75.093.565.303 1.304.631 2.218z"/>
            <ellipse cx="50.764" cy="5.974" fill="#CCC" rx="1.806" ry="1" transform="rotate(-1 50.764 5.974)"/>
        </g>
    </g>
</svg>
